REM DIRINDEX 1\2,1\3,1\4,1\5,1\6
REM DIRNAME cjc091,folder01,folder02,folder03,folder04,folder05
TITLE ""
FILE "CD2-17.mp3" MP3
  TRACK 01 AUDIO
    TITLE "6:cjc091_1769"
    INDEX 01 00:00:00
  TRACK 02 AUDIO
    TITLE "0:"
    INDEX 01 00:01:22
  TRACK 03 AUDIO
    TITLE "6:cjc091_1770"
    INDEX 01 00:01:42
  TRACK 04 AUDIO
    TITLE "0:"
    INDEX 01 00:03:61
  TRACK 05 AUDIO
    TITLE "2:cjc091_1771"
    INDEX 01 00:05:12
  TRACK 06 AUDIO
    TITLE "0:"
    INDEX 01 00:06:49
  TRACK 07 AUDIO
    TITLE "3:cjc091_1772"
    INDEX 01 00:06:59
  TRACK 08 AUDIO
    TITLE "0:"
    INDEX 01 00:08:30
  TRACK 09 AUDIO
    TITLE "4:cjc091_1773"
    INDEX 01 00:08:48
  TRACK 10 AUDIO
    TITLE "0:"
    INDEX 01 00:13:51
  TRACK 11 AUDIO
    TITLE "2:cjc091_1774"
    INDEX 01 00:14:60
  TRACK 12 AUDIO
    TITLE "0:"
    INDEX 01 00:16:26
  TRACK 13 AUDIO
    TITLE "3:cjc091_1775"
    INDEX 01 00:16:36
  TRACK 14 AUDIO
    TITLE "0:"
    INDEX 01 00:17:70
  TRACK 15 AUDIO
    TITLE "4:cjc091_1776"
    INDEX 01 00:18:17
  TRACK 16 AUDIO
    TITLE "0:"
    INDEX 01 00:21:37
  TRACK 17 AUDIO
    TITLE "2:cjc091_1777"
    INDEX 01 00:22:56
  TRACK 18 AUDIO
    TITLE "0:"
    INDEX 01 00:24:18
  TRACK 19 AUDIO
    TITLE "3:cjc091_1778"
    INDEX 01 00:24:29
  TRACK 20 AUDIO
    TITLE "0:"
    INDEX 01 00:26:20
  TRACK 21 AUDIO
    TITLE "4:cjc091_1779"
    INDEX 01 00:26:40
  TRACK 22 AUDIO
    TITLE "0:"
    INDEX 01 00:28:68
  TRACK 23 AUDIO
    TITLE "2:cjc091_1780"
    INDEX 01 00:30:03
  TRACK 24 AUDIO
    TITLE "0:"
    INDEX 01 00:31:20
  TRACK 25 AUDIO
    TITLE "3:cjc091_1781"
    INDEX 01 00:31:37
  TRACK 26 AUDIO
    TITLE "0:"
    INDEX 01 00:33:24
  TRACK 27 AUDIO
    TITLE "4:cjc091_1782"
    INDEX 01 00:33:42
  TRACK 28 AUDIO
    TITLE "0:"
    INDEX 01 00:36:36
  TRACK 29 AUDIO
    TITLE "2:cjc091_1783"
    INDEX 01 00:37:50
  TRACK 30 AUDIO
    TITLE "0:"
    INDEX 01 00:40:09
  TRACK 31 AUDIO
    TITLE "3:cjc091_1784"
    INDEX 01 00:40:28
  TRACK 32 AUDIO
    TITLE "0:"
    INDEX 01 00:42:19
  TRACK 33 AUDIO
    TITLE "4:cjc091_1785"
    INDEX 01 00:42:39
  TRACK 34 AUDIO
    TITLE "0:"
    INDEX 01 00:47:34
  TRACK 35 AUDIO
    TITLE "2:cjc091_1786"
    INDEX 01 00:48:49
  TRACK 36 AUDIO
    TITLE "0:"
    INDEX 01 00:50:03
  TRACK 37 AUDIO
    TITLE "3:cjc091_1787"
    INDEX 01 00:50:11
  TRACK 38 AUDIO
    TITLE "0:"
    INDEX 01 00:51:71
  TRACK 39 AUDIO
    TITLE "4:cjc091_1788"
    INDEX 01 00:52:24
  TRACK 40 AUDIO
    TITLE "0:"
    INDEX 01 00:57:25
  TRACK 41 AUDIO
    TITLE "2:cjc091_1789"
    INDEX 01 00:58:42
  TRACK 42 AUDIO
    TITLE "0:"
    INDEX 01 00:59:65
  TRACK 43 AUDIO
    TITLE "3:cjc091_1790"
    INDEX 01 01:00:08
  TRACK 44 AUDIO
    TITLE "0:"
    INDEX 01 01:02:12
  TRACK 45 AUDIO
    TITLE "4:cjc091_1791"
    INDEX 01 01:02:32
  TRACK 46 AUDIO
    TITLE "0:"
    INDEX 01 01:05:46
  TRACK 47 AUDIO
    TITLE "2:cjc091_1792"
    INDEX 01 01:06:57
  TRACK 48 AUDIO
    TITLE "0:"
    INDEX 01 01:08:01
  TRACK 49 AUDIO
    TITLE "3:cjc091_1793"
    INDEX 01 01:08:19
  TRACK 50 AUDIO
    TITLE "0:"
    INDEX 01 01:10:04
  TRACK 51 AUDIO
    TITLE "4:cjc091_1794"
    INDEX 01 01:10:20
  TRACK 52 AUDIO
    TITLE "0:"
    INDEX 01 01:14:72
  TRACK 53 AUDIO
    TITLE "2:cjc091_1795"
    INDEX 01 01:16:09
  TRACK 54 AUDIO
    TITLE "0:"
    INDEX 01 01:17:26
  TRACK 55 AUDIO
    TITLE "3:cjc091_1796"
    INDEX 01 01:17:49
  TRACK 56 AUDIO
    TITLE "0:"
    INDEX 01 01:18:66
  TRACK 57 AUDIO
    TITLE "4:cjc091_1797"
    INDEX 01 01:19:13
  TRACK 58 AUDIO
    TITLE "0:"
    INDEX 01 01:22:44
  TRACK 59 AUDIO
    TITLE "2:cjc091_1798"
    INDEX 01 01:23:54
  TRACK 60 AUDIO
    TITLE "0:"
    INDEX 01 01:24:59
  TRACK 61 AUDIO
    TITLE "3:cjc091_1799"
    INDEX 01 01:25:00
  TRACK 62 AUDIO
    TITLE "0:"
    INDEX 01 01:26:46
  TRACK 63 AUDIO
    TITLE "4:cjc091_1800"
    INDEX 01 01:26:64
  TRACK 64 AUDIO
    TITLE "0:"
    INDEX 01 01:29:37
  TRACK 65 AUDIO
    TITLE "2:cjc091_1801"
    INDEX 01 01:30:52
  TRACK 66 AUDIO
    TITLE "0:"
    INDEX 01 01:32:06
  TRACK 67 AUDIO
    TITLE "3:cjc091_1802"
    INDEX 01 01:32:23
  TRACK 68 AUDIO
    TITLE "0:"
    INDEX 01 01:34:26
  TRACK 69 AUDIO
    TITLE "4:cjc091_1803"
    INDEX 01 01:34:48
  TRACK 70 AUDIO
    TITLE "0:"
    INDEX 01 01:36:48
  TRACK 71 AUDIO
    TITLE "2:cjc091_1804"
    INDEX 01 01:37:62
  TRACK 72 AUDIO
    TITLE "0:"
    INDEX 01 01:39:00
  TRACK 73 AUDIO
    TITLE "3:cjc091_1805"
    INDEX 01 01:39:08
  TRACK 74 AUDIO
    TITLE "0:"
    INDEX 01 01:40:21
  TRACK 75 AUDIO
    TITLE "4:cjc091_1806"
    INDEX 01 01:40:40
  TRACK 76 AUDIO
    TITLE "0:"
    INDEX 01 01:43:13
  TRACK 77 AUDIO
    TITLE "2:cjc091_1807"
    INDEX 01 01:44:24
  TRACK 78 AUDIO
    TITLE "0:"
    INDEX 01 01:45:49
  TRACK 79 AUDIO
    TITLE "3:cjc091_1808"
    INDEX 01 01:45:71
  TRACK 80 AUDIO
    TITLE "0:"
    INDEX 01 01:47:48
  TRACK 81 AUDIO
    TITLE "4:cjc091_1809"
    INDEX 01 01:47:62
  TRACK 82 AUDIO
    TITLE "0:"
    INDEX 01 01:50:33
  TRACK 83 AUDIO
    TITLE "2:cjc091_1810"
    INDEX 01 01:51:40
  TRACK 84 AUDIO
    TITLE "0:"
    INDEX 01 01:52:65
  TRACK 85 AUDIO
    TITLE "3:cjc091_1811"
    INDEX 01 01:53:06
  TRACK 86 AUDIO
    TITLE "0:"
    INDEX 01 01:54:58
  TRACK 87 AUDIO
    TITLE "4:cjc091_1812"
    INDEX 01 01:55:05
  TRACK 88 AUDIO
    TITLE "0:"
    INDEX 01 02:00:00
  TRACK 89 AUDIO
    TITLE "2:cjc091_1813"
    INDEX 01 02:01:05
  TRACK 90 AUDIO
    TITLE "0:"
    INDEX 01 02:02:48
  TRACK 91 AUDIO
    TITLE "3:cjc091_1814"
    INDEX 01 02:02:50
  TRACK 92 AUDIO
    TITLE "0:"
    INDEX 01 02:04:00
  TRACK 93 AUDIO
    TITLE "4:cjc091_1815"
    INDEX 01 02:04:21
  TRACK 94 AUDIO
    TITLE "0:"
    INDEX 01 02:08:17
